PathFileType	4	(X/Y/Z)	C:/Users/beibeiliu/ov580/test_trc/capture2\sequence.19_training_dense_right.trc
DataRate	CameraRate	NumFrames	NumMarkers	Units	OrigDataRate	OrigDataStartFrame	OrigNumFrames
120	120	18	19	mm	120	264	351
Frame#	Time	ThumbCMC			ThumbMCP			ThumbIP			ThumbTip			IndexMCP			IndexPIP			IndexTip			MiddleMCP			MiddlePIP			MiddleTip			RingMCP			RingPIP			RingTip			PinkyMCP			PinkyPIP			PinkyTip			BackHand1			BackHand2			BackHand3	
		X0	Y0	Z0	X1	Y1	Z1	X2	Y2	Z2	X3	Y3	Z3	X4	Y4	Z4	X5	Y5	Z5	X6	Y6	Z6	X7	Y7	Z7	X8	Y8	Z8	X9	Y9	Z9	X10	Y10	Z10	X11	Y11	Z11	X12	Y12	Z12	X13	Y13	Z13	X14	Y14	Z14	X15	Y15	Z15	X16	Y16	Z16	X17	Y17	Z17	X18	Y18	Z18	
263	2.19167	124.015	102.848	12.979	97.3522	103.82	0.822426	78.1085	106.077	-21.8314	66.3091	99.519	-40.5336	145.531	94.6912	-57.5029	134.04	92.9685	-84.4512	114.861	80.8607	-98.9288	154.321	67.8895	-58.6679	141.224	59.8367	-86.1981	108.523	51.0184	-97.5374	157.686	50.4809	-53.8688	144.711	37.4463	-79.3909	115.706	31.2556	-88.438	157.303	28.793	-36.5326	147.303	18.0578	-61.8548	125.732	14.0724	-79.1684	168.275	56.7562	-2.56466	172.881	61.022	25.4965	159.678	88.5899	7.39628	
264	2.2	119.869	99.844	18.9619	94.8244	95.5656	4.08589	74.0479	97.23	-20.1254	64.8126	87.3656	-36.9465	141.484	89.6312	-57.4189	130.366	88.2209	-81.7824	112.013	71.3942	-97.3683	152.504	65.1246	-59.7875	139.542	54.6469	-87.0356	107.635	40.6195	-96.6949	158.626	46.0261	-51.7234	144.237	38.3365	-79.3197	113.706	25.3827	-87.8179	158.717	28.8034	-36.9129	151.068	16.3225	-62.3043	125.565	10.867	-78.9571	169.239	52.8951	-1.18829	171.009	60.466	23.325	157.088	86.5365	7.43576	
265	2.20833	118.358	91.131	15.5615	90.4518	88.9014	2.03143	69.8224	89.4673	-18.8615	58.9695	79.0021	-39.4424	138.807	85.1815	-54.8859	128.31	82.201	-81.7123	107.899	65.6487	-98.4504	150.705	64.4963	-62.1599	138.055	53.4323	-85.5509	111.449	33.7981	-95.1365	157.176	46.7264	-53.5929	145.243	32.5294	-80.4642	120.583	23.3024	-87.5905	163.886	24.6455	-38.5927	156.347	15.4339	-59.889	130.676	3.19886	-75.9698	168.204	52.4066	-6.09418	172.529	60.8033	27.1154	154.832	86.1335	6.64245	
266	2.21667	111.834	88.2695	16.4006	88.1518	79.6591	4.91571	70.298	78.0067	-14.8588	55.002	69.0818	-37.1461	134.868	82.028	-50.8562	121.642	78.1791	-82.4735	106.93	59.6662	-96.8823	148.817	62.0568	-61.013	136.143	51.1796	-86.95	110.766	33.4984	-96.3079	156.655	48.555	-53.0245	149.857	31.6061	-76.5983	121.092	18.1526	-87.3198	163.107	28.7224	-35.0475	159.281	11.5765	-60.5451	134.925	4.57604	-78.5945	169.305	54.6598	-3.58758	170.626	59.1304	22.9339	151.42	81.8875	8.68382	
267	2.225	112.087	80.4658	21.2407	85.5192	72.5034	5.14812	65.8434	69.7393	-12.7467	55.4361	58.595	-32.9186	126.397	83.0591	-50.9914	120.883	73.5892	-78.9303	102.41	52.125	-97.2844	144.927	63.8821	-59.4803	135.831	48.2112	-85.1691	113.747	27.9234	-95.5513	158.05	47.8363	-52.6199	146.704	35.1885	-78.3428	120.849	16.7634	-87.7124	165.027	29.078	-35.7229	162.604	14.2071	-59.9733	137.046	1.48541	-76.47	168.441	55.3268	-5.67159	171.613	61.8031	23.7063	147.346	82.346	5.61934	
268	2.23333	106.493	78.632	23.7337	79.2367	66.6737	7.37555	64.0538	60.8923	-8.2016	51.6162	50.012	-33.2274	125.693	79.1961	-53.6533	112.653	73.2782	-79.5872	100.409	52.9723	-95.3686	144.241	62.432	-58.0925	134.57	51.3674	-83.4999	115.751	21.2067	-95.0582	156.559	50.5212	-52.9025	147.113	36.4029	-78.1593	125.328	16.9571	-86.6196	168.807	30.1814	-35.4441	162.899	16.4036	-62.9292	142.498	-1.56783	-76.1187	165.121	57.892	-4.79075	169.629	61.1019	27.3992	142.559	83.3484	12.0183	
269	2.24167	105.062	71.7859	21.7346	80.2554	59.8552	8.17842	60.8699	52.9023	-8.5429	51.8313	41.4051	-29.8368	117.755	79.7472	-49.2402	111.105	70.1665	-79.1023	102.086	50.5482	-94.1893	138.952	65.4759	-54.7404	134.613	48.0646	-84.9704	117.382	20.1381	-95.3487	156.72	50.9744	-48.3912	149.804	38.8586	-75.7401	129.848	17.2391	-86.1024	171.399	32.53	-35.5376	165.866	19.1193	-60.9515	146.02	-0.183947	-73.2031	163.989	61.7974	-3.70283	166.843	66.8306	24.3796	138.264	83.8393	10.8037	
270	2.25	97.94	71.2307	23.9069	76.0598	55.4058	12.7121	62.7611	46.0141	-5.28379	55.4206	33.5162	-27.907	116.193	77.0518	-48.3017	108.057	68.2828	-77.4207	99.6938	49.8005	-94.1588	135.274	67.0073	-55.0473	132.584	51.8989	-82.4921	113.658	23.169	-96.0687	153.945	53.6298	-50.2847	145.802	39.1097	-77.9997	128.431	14.5132	-87.0223	170.598	37.9206	-33.8885	169.528	23.0811	-59.3067	148.069	6.23087	-72.3768	160.196	63.6691	1.01975	162.494	71.7281	28.9716	136.093	84.418	14.3164	
271	2.25833	96.0462	66.4702	26.8661	74.1973	49.6985	12.9831	58.3311	40.4061	-4.78197	55.5673	28.546	-29.3668	109.698	75.5554	-45.4973	102.525	69.1285	-74.3119	96.7167	45.1957	-95.2588	132.605	67.3725	-53.1152	131.176	53.8884	-81.655	119.196	25.046	-94.379	151.658	56.906	-47.2834	149.781	40.2859	-76.3828	132.863	17.215	-86.7537	168.121	43.2505	-34.2862	168.704	26.626	-61.5237	152.128	8.56475	-74.1458	157.094	69.2259	-2.69442	162.814	70.347	31.131	129.828	84.9066	14.5038	
272	2.26667	95.1328	62.5572	25.0994	77.5578	45.1299	11.5123	62.7759	35.2866	-8.65814	57.0576	23.858	-26.9562	104.798	74.9139	-42.8306	101.462	68.2466	-73.172	95.3557	49.1566	-92.6454	133.513	68.4548	-54.5605	128.652	54.1954	-82.4964	117.989	21.6287	-95.1172	148.209	60.5658	-46.2043	149.006	43.7995	-77.645	135.243	20.5814	-86.2933	169.912	46.614	-37.6737	170.415	30.4085	-61.7978	155.017	7.1527	-72.7908	153.979	69.5832	-0.532534	158.904	76.0421	28.1943	130.406	82.0736	15.1615	
273	2.275	94.3937	60.2377	28.5587	79.0064	41.0813	10.1714	61.7426	29.6891	-4.55723	56.2308	18.6328	-28.7141	103.989	74.1139	-42.268	96.6984	68.6169	-70.9082	95.55	47.1827	-91.7701	131.002	69.8467	-51.337	126.644	54.8425	-82.9636	120.776	26.9016	-94.7451	149.161	61.9532	-49.6389	148.274	47.3079	-75.9893	133.965	20.5909	-87.4079	170.235	50.1129	-34.6915	169.163	39.1597	-60.5826	160.049	14.8291	-74.2903	151.291	74.3494	3.21909	154.756	75.9139	27.4453	125.2	81.7598	12.2886	
274	2.28333	95.6922	57.5692	30.7749	80.0126	38.1512	15.1547	61.7178	25.1373	-8.56425	61.4158	13.9936	-28.6071	99.2279	73.3728	-44.8071	96.1669	66.6037	-71.474	90.6668	48.1919	-92.442	125.629	70.4709	-54.5908	126.063	55.7976	-82.239	119.671	27.0507	-96.9665	148.388	65.2323	-51.5366	145.422	53.2631	-73.8046	138.817	22.245	-87.8103	170.291	53.5491	-33.6104	171.517	41.0057	-61.4342	163.246	16.0414	-73.5305	149.447	76.9822	1.63672	156.758	79.7366	32.6929	123.808	80.5457	14.4855	
275	2.29167	94.4834	53.714	28.761	76.7236	32.4481	12.8282	68.1018	21.4227	-8.42397	61.7866	9.73624	-28.8949	100.333	71.5524	-40.7329	91.8788	65.7124	-71.3523	90.2256	45.0185	-94.5919	126.689	71.3942	-51.8336	123.96	57.3489	-81.386	123.572	30.544	-95.4762	146.553	67.7205	-45.3511	147.796	54.2565	-74.7439	139.156	28.9142	-87.2344	168.058	59.1603	-37.7744	167.309	47.2259	-61.8675	164.021	23.4901	-76.4639	150.137	76.2102	-1.38941	149.749	81.4096	31.4032	121.344	79.6851	17.0943	
276	2.3	93.9583	51.6052	31.1119	77.2452	28.9772	14.534	64.8544	15.4301	-5.66264	63.3425	4.3331	-29.5815	96.4727	71.3276	-39.8216	92.8745	66.0771	-70.1183	89.5152	44.9021	-94.5929	119.881	72.2652	-49.1933	122.848	59.3142	-81.8497	125.579	32.9164	-96.1174	141.197	70.5827	-50.6026	142.68	56.4256	-77.2673	140.993	31.9828	-88.0961	161.686	64.1124	-37.7278	165.425	52.2342	-62.9665	164.747	28.0071	-78.8569	144.054	78.2303	-0.917858	150.073	81.3324	32.4143	117.666	79.7931	15.5069	
277	2.30833	93.7446	48.7025	25.0125	81.1449	27.1332	10.5484	68.4948	11.5965	-9.98707	70.2183	1.798	-27.8565	94.1976	70.2541	-43.25	87.1071	64.0092	-69.6083	92.2396	43.0135	-95.5506	119.426	74.2414	-50.2454	120.396	63.5668	-79.763	126.647	30.2086	-97.2738	137.512	72.5177	-50.0431	143.428	61.8314	-75.1874	137.53	31.294	-89.5126	162.102	66.7754	-35.8609	168.335	55.342	-63.9281	161.729	31.9647	-78.3747	142.759	80.6574	0.22137	144.622	84.3625	32.6676	110.135	80.1665	16.5134	
278	2.31667	89.6643	44.1807	26.8074	81.754	22.8437	8.38538	71.5032	7.47443	-11.0872	73.3432	-2.37592	-34.2812	88.6579	67.4969	-41.9197	85.0801	60.4856	-71.3857	91.3652	44.7112	-92.3205	117.712	74.529	-51.3099	115.836	64.7404	-79.072	121.874	35.6138	-97.0877	133.486	74.681	-49.4936	138.921	63.8943	-75.7433	140.55	34.8782	-88.02	158.818	71.474	-34.5135	166.854	63.4028	-61.3662	163.501	35.7543	-80.9371	138.377	81.6995	0.904202	142.769	86.2521	33.4792	106.303	77.2628	17.0969	
279	2.325	90.0741	41.7179	28.3997	81.6165	18.5049	10.7529	71.555	3.71035	-9.46217	75.4801	-3.66632	-32.2454	89.8213	65.8553	-42.7795	85.5042	58.0873	-71.8337	86.5989	42.7882	-92.3353	113.53	74.297	-49.4904	115.537	63.7793	-81.4037	122.13	38.2499	-96.7574	130.704	76.2828	-47.118	136.83	66.2083	-75.3619	141.548	39.7918	-88.3324	158.545	74.8286	-34.1616	163.732	66.7537	-61.2186	161.273	42.8702	-81.5174	137.044	84.1625	6.22792	134.245	85.5995	32.9264	104.55	77.3349	18.5107	
280	2.33333	89.3603	37.8995	29.9155	83.9839	16.9403	11.2064	76.6254	2.5913	-15.4148	77.6943	-6.77775	-37.1063	89.1114	64.4299	-41.6748	82.1054	56.4015	-72.7165	87.8865	38.3523	-93.9199	110.1	75.5263	-53.0408	114.708	66.3874	-78.7663	124.213	36.614	-97.5207	127.106	77.0744	-48.5024	132.172	69.2503	-73.537	142.236	40.0211	-88.3939	152.157	77.3349	-32.4962	160.511	70.5376	-62.3258	159.235	46.0036	-80.6292	130.519	84.1683	2.30336	132.699	85.5516	32.9081	101.302	73.112	16.4677	
